<svg xmlns="http://www.w3.org/2000/svg" viewBox="0 0 760 830.0" width="760" height="830.0">
<style>
  text { font-family: "Consolas", "Monaco", monospace; }
  .title { font-size: 16px; font-weight: bold; fill: #333; }
  .col-title { font-size: 13px; font-weight: bold; fill: #555; }
  .region-name { font-size: 10px; }
  .region-size { font-size: 9px; opacity: 0.8; }
  .addr { font-size: 9px; fill: #666; }
  .legend-text { font-size: 11px; fill: #333; }
  rect.region { stroke: #666; stroke-width: 0.5; }
  pattern#hatch { patternUnits: userSpaceOnUse; }
</style>
<defs>
  <pattern id="hatch" width="6" height="6" patternTransform="rotate(45)"   patternUnits="userSpaceOnUse">
    <line x1="0" y1="0" x2="0" y2="6" stroke="#CCC" stroke-width="1.5"/>
  </pattern>
  <pattern id="hatch-orange" width="6" height="6" patternTransform="rotate(45)"   patternUnits="userSpaceOnUse">
    <rect width="6" height="6" fill="#F5C882"/>
    <line x1="0" y1="0" x2="0" y2="6" stroke="#D4981C" stroke-width="1.5"/>
  </pattern>
</defs>
<text x="380.0" y="30" text-anchor="middle" class="title">Dongle Working 256K</text>
<text x="200.0" y="42" text-anchor="middle" class="col-title">Flash (128 KB)</text>
<rect x="100" y="50.0" width="200" height="106.0" fill="#4682B4" class="region"/>
<text x="96" y="61.0" class="addr" text-anchor="end">0x08000000</text>
<text x="200.0" y="106.0" text-anchor="middle" class="region-name" fill="#FFFFFF">bootloader</text>
<text x="200.0" y="113.0" text-anchor="middle" class="region-size" fill="#FFFFFF">20 KB</text>
<rect x="100" y="156.0" width="200" height="127.2" fill="#4682B4" class="region"/>
<text x="96" y="167.0" class="addr" text-anchor="end">0x08005000</text>
<text x="200.0" y="222.6" text-anchor="middle" class="region-name" fill="#FFFFFF">firmware_code</text>
<text x="200.0" y="229.6" text-anchor="middle" class="region-size" fill="#FFFFFF">24 KB</text>
<rect x="100" y="283.2" width="200" height="24.0" fill="#E8820C" class="region"/>
<text x="96" y="294.2" class="addr" text-anchor="end">0x0800B000</text>
<text x="200.0" y="298.2" text-anchor="middle" class="region-name" fill="#FFFFFF">Patch (used)</text>
<rect x="100" y="307.2" width="200" height="50.6" fill="url(#hatch-orange)" class="region"/>
<text x="96" y="318.2" class="addr" text-anchor="end">0x0800B1C6</text>
<text x="200.0" y="335.5" text-anchor="middle" class="region-name" fill="#886620">Patch (free)</text>
<text x="200.0" y="342.5" text-anchor="middle" class="region-size" fill="#886620">9786 B</text>
<rect x="100" y="357.8" width="200" height="392.2" fill="#4682B4" class="region"/>
<text x="96" y="368.8" class="addr" text-anchor="end">0x0800D800</text>
<text x="200.0" y="556.9" text-anchor="middle" class="region-name" fill="#FFFFFF">firmware_code2</text>
<text x="200.0" y="563.9" text-anchor="middle" class="region-size" fill="#FFFFFF">74 KB</text>
<text x="96" y="761.0" class="addr" text-anchor="end">0x08020000</text>
<text x="560.0" y="42" text-anchor="middle" class="col-title">SRAM (96 KB)</text>
<rect x="460" y="50.0" width="200" height="24.0" fill="#4682B4" class="region"/>
<text x="456" y="61.0" class="addr" text-anchor="end">0x20000000</text>
<text x="560.0" y="65.0" text-anchor="middle" class="region-name" fill="#FFFFFF">SPI flags</text>
<rect x="460" y="74.0" width="200" height="24.0" fill="#4682B4" class="region"/>
<text x="456" y="85.0" class="addr" text-anchor="end">0x20000040</text>
<text x="560.0" y="89.0" text-anchor="middle" class="region-name" fill="#FFFFFF">USB class handler</text>
<rect x="460" y="98.0" width="200" height="24.0" fill="#4682B4" class="region"/>
<text x="456" y="109.0" class="addr" text-anchor="end">0x200001B0</text>
<text x="560.0" y="113.0" text-anchor="middle" class="region-name" fill="#FFFFFF">USB descriptors</text>
<rect x="460" y="122.0" width="200" height="24.0" fill="#4682B4" class="region"/>
<text x="456" y="133.0" class="addr" text-anchor="end">0x20000330</text>
<text x="560.0" y="137.0" text-anchor="middle" class="region-name" fill="#FFFFFF">Dongle state</text>
<rect x="460" y="146.0" width="200" height="24.0" fill="#4682B4" class="region"/>
<text x="456" y="157.0" class="addr" text-anchor="end">0x20000484</text>
<text x="560.0" y="161.0" text-anchor="middle" class="region-name" fill="#FFFFFF">USB device</text>
<rect x="460" y="170.0" width="200" height="24.0" fill="#4682B4" class="region"/>
<text x="456" y="181.0" class="addr" text-anchor="end">0x200007B4</text>
<text x="560.0" y="185.0" text-anchor="middle" class="region-name" fill="#FFFFFF">EP report bufs</text>
<rect x="460" y="194.0" width="200" height="24.0" fill="#4682B4" class="region"/>
<text x="456" y="205.0" class="addr" text-anchor="end">0x20000834</text>
<text x="560.0" y="209.0" text-anchor="middle" class="region-name" fill="#FFFFFF">SPI buffer</text>
<rect x="460" y="218.0" width="200" height="24.0" fill="#4682B4" class="region"/>
<text x="456" y="229.0" class="addr" text-anchor="end">0x20000924</text>
<text x="560.0" y="233.0" text-anchor="middle" class="region-name" fill="#FFFFFF">String descs</text>
<rect x="460" y="242.0" width="200" height="16.9" fill="url(#hatch)" class="region"/>
<text x="456" y="253.0" class="addr" text-anchor="end">0x200012B0</text>
<text x="560.0" y="253.5" text-anchor="middle" class="region-name" fill="#888888">(unused)</text>
<rect x="460" y="258.9" width="200" height="24.0" fill="#E8820C" class="region"/>
<text x="456" y="269.9" class="addr" text-anchor="end">0x20002000</text>
<text x="560.0" y="273.9" text-anchor="middle" class="region-name" fill="#FFFFFF">Patch (used)</text>
<rect x="460" y="282.9" width="200" height="24.0" fill="url(#hatch-orange)" class="region"/>
<text x="456" y="293.9" class="addr" text-anchor="end">0x200020E8</text>
<text x="560.0" y="297.9" text-anchor="middle" class="region-name" fill="#886620">Patch (free)</text>
<rect x="460" y="306.9" width="200" height="443.1" fill="url(#hatch)" class="region"/>
<text x="456" y="317.9" class="addr" text-anchor="end">0x20002400</text>
<text x="560.0" y="531.5" text-anchor="middle" class="region-name" fill="#888888">(unused)</text>
<text x="560.0" y="538.5" text-anchor="middle" class="region-size" fill="#888888">87 KB</text>
<text x="456" y="761.0" class="addr" text-anchor="end">0x20018000</text>
<rect x="20" y="770.0" width="14" height="14" fill="#4682B4" stroke="#999" stroke-width="0.5"/>
<text x="40" y="780.0" class="legend-text">Firmware / globals</text>
<rect x="186" y="770.0" width="14" height="14" fill="#4CAF50" stroke="#999" stroke-width="0.5"/>
<text x="206" y="780.0" class="legend-text">Config / keymaps</text>
<rect x="338" y="770.0" width="14" height="14" fill="#E8820C" stroke="#999" stroke-width="0.5"/>
<text x="358" y="780.0" class="legend-text">Patch (used)</text>
<rect x="462" y="770.0" width="14" height="14" fill="url(#hatch-orange)" stroke="#999" stroke-width="0.5"/>
<text x="482" y="780.0" class="legend-text">Patch (free)</text>
<rect x="586" y="770.0" width="14" height="14" fill="#B39DDB" stroke="#999" stroke-width="0.5"/>
<text x="606" y="780.0" class="legend-text">Stack</text>
<rect x="661" y="770.0" width="14" height="14" fill="url(#hatch)" stroke="#999" stroke-width="0.5"/>
<text x="681" y="780.0" class="legend-text">Unused</text>
</svg>