<svg xmlns="http://www.w3.org/2000/svg" viewBox="0 0 760 830.0" width="760" height="830.0">
<style>
  text { font-family: "Consolas", "Monaco", monospace; }
  .title { font-size: 16px; font-weight: bold; fill: #333; }
  .col-title { font-size: 13px; font-weight: bold; fill: #555; }
  .region-name { font-size: 10px; }
  .region-size { font-size: 9px; opacity: 0.8; }
  .addr { font-size: 9px; fill: #666; }
  .legend-text { font-size: 11px; fill: #333; }
  rect.region { stroke: #666; stroke-width: 0.5; }
  pattern#hatch { patternUnits: userSpaceOnUse; }
</style>
<defs>
  <pattern id="hatch" width="6" height="6" patternTransform="rotate(45)"   patternUnits="userSpaceOnUse">
    <line x1="0" y1="0" x2="0" y2="6" stroke="#CCC" stroke-width="1.5"/>
  </pattern>
  <pattern id="hatch-orange" width="6" height="6" patternTransform="rotate(45)"   patternUnits="userSpaceOnUse">
    <rect width="6" height="6" fill="#F5C882"/>
    <line x1="0" y1="0" x2="0" y2="6" stroke="#D4981C" stroke-width="1.5"/>
  </pattern>
</defs>
<text x="380.0" y="30" text-anchor="middle" class="title">Firmware Reconstructed</text>
<text x="200.0" y="42" text-anchor="middle" class="col-title">Flash (256 KB)</text>
<rect x="100" y="50.0" width="200" height="43.1" fill="#4682B4" class="region"/>
<text x="96" y="61.0" class="addr" text-anchor="end">0x08000000</text>
<text x="200.0" y="74.5" text-anchor="middle" class="region-name" fill="#FFFFFF">Bootloader</text>
<text x="200.0" y="81.5" text-anchor="middle" class="region-size" fill="#FFFFFF">20 KB</text>
<rect x="100" y="93.1" width="200" height="279.1" fill="#4682B4" class="region"/>
<text x="96" y="104.1" class="addr" text-anchor="end">0x08005000</text>
<text x="200.0" y="235.6" text-anchor="middle" class="region-name" fill="#FFFFFF">Firmware code</text>
<text x="200.0" y="242.6" text-anchor="middle" class="region-size" fill="#FFFFFF">132736 B</text>
<rect x="100" y="372.2" width="200" height="24.0" fill="url(#hatch)" class="region"/>
<text x="96" y="383.2" class="addr" text-anchor="end">0x08025680</text>
<text x="200.0" y="387.2" text-anchor="middle" class="region-name" fill="#888888">(unused)</text>
<rect x="100" y="396.2" width="200" height="24.0" fill="#E8820C" class="region"/>
<text x="96" y="407.2" class="addr" text-anchor="end">0x08025800</text>
<text x="200.0" y="411.2" text-anchor="middle" class="region-name" fill="#FFFFFF">Patch (used)</text>
<rect x="100" y="420.2" width="200" height="24.0" fill="url(#hatch-orange)" class="region"/>
<text x="96" y="431.2" class="addr" text-anchor="end">0x080260CE</text>
<text x="200.0" y="435.2" text-anchor="middle" class="region-name" fill="#886620">Patch (free)</text>
<rect x="100" y="444.2" width="200" height="24.0" fill="#4CAF50" class="region"/>
<text x="96" y="455.2" class="addr" text-anchor="end">0x08028000</text>
<text x="200.0" y="459.2" text-anchor="middle" class="region-name" fill="#FFFFFF">config_header</text>
<rect x="100" y="468.2" width="200" height="24.0" fill="#4CAF50" class="region"/>
<text x="96" y="479.2" class="addr" text-anchor="end">0x08028800</text>
<text x="200.0" y="483.2" text-anchor="middle" class="region-name" fill="#FFFFFF">keymaps</text>
<rect x="100" y="492.2" width="200" height="24.0" fill="#4CAF50" class="region"/>
<text x="96" y="503.2" class="addr" text-anchor="end">0x0802A800</text>
<text x="200.0" y="507.2" text-anchor="middle" class="region-name" fill="#FFFFFF">fn_layers</text>
<rect x="100" y="516.2" width="200" height="30.1" fill="#4CAF50" class="region"/>
<text x="96" y="527.2" class="addr" text-anchor="end">0x0802B800</text>
<text x="200.0" y="534.3" text-anchor="middle" class="region-name" fill="#FFFFFF">macros</text>
<rect x="100" y="546.3" width="200" height="24.0" fill="url(#hatch)" class="region"/>
<text x="96" y="557.3" class="addr" text-anchor="end">0x0802F000</text>
<text x="200.0" y="561.3" text-anchor="middle" class="region-name" fill="#888888">(unused)</text>
<rect x="100" y="570.3" width="200" height="24.0" fill="#4CAF50" class="region"/>
<text x="96" y="581.3" class="addr" text-anchor="end">0x0802F800</text>
<text x="200.0" y="585.3" text-anchor="middle" class="region-name" fill="#FFFFFF">userpics</text>
<rect x="100" y="594.3" width="200" height="24.0" fill="url(#hatch)" class="region"/>
<text x="96" y="605.3" class="addr" text-anchor="end">0x08030000</text>
<text x="200.0" y="609.3" text-anchor="middle" class="region-name" fill="#888888">(unused)</text>
<rect x="100" y="618.3" width="200" height="24.0" fill="#4CAF50" class="region"/>
<text x="96" y="629.3" class="addr" text-anchor="end">0x08032000</text>
<text x="200.0" y="633.3" text-anchor="middle" class="region-name" fill="#FFFFFF">calib_data</text>
<rect x="100" y="642.3" width="200" height="34.5" fill="#4CAF50" class="region"/>
<text x="96" y="653.3" class="addr" text-anchor="end">0x08033800</text>
<text x="200.0" y="662.6" text-anchor="middle" class="region-name" fill="#FFFFFF">magnetism</text>
<text x="200.0" y="669.6" text-anchor="middle" class="region-size" fill="#FFFFFF">16 KB</text>
<rect x="100" y="676.8" width="200" height="73.2" fill="url(#hatch)" class="region"/>
<text x="96" y="687.8" class="addr" text-anchor="end">0x08037800</text>
<text x="200.0" y="716.4" text-anchor="middle" class="region-name" fill="#888888">(unused)</text>
<text x="200.0" y="723.4" text-anchor="middle" class="region-size" fill="#888888">34 KB</text>
<text x="96" y="761.0" class="addr" text-anchor="end">0x08040000</text>
<text x="560.0" y="42" text-anchor="middle" class="col-title">SRAM (96 KB)</text>
<rect x="460" y="50.0" width="200" height="24.0" fill="#4682B4" class="region"/>
<text x="456" y="61.0" class="addr" text-anchor="end">0x20000000</text>
<text x="560.0" y="65.0" text-anchor="middle" class="region-name" fill="#FFFFFF">HID + descriptors</text>
<rect x="460" y="74.0" width="200" height="24.0" fill="#4682B4" class="region"/>
<text x="456" y="85.0" class="addr" text-anchor="end">0x20000400</text>
<text x="560.0" y="89.0" text-anchor="middle" class="region-name" fill="#FFFFFF">Kbd state</text>
<rect x="460" y="98.0" width="200" height="24.0" fill="#4682B4" class="region"/>
<text x="456" y="109.0" class="addr" text-anchor="end">0x200004B0</text>
<text x="560.0" y="113.0" text-anchor="middle" class="region-name" fill="#FFFFFF">LED DMA buf</text>
<rect x="460" y="122.0" width="200" height="24.0" fill="#4682B4" class="region"/>
<text x="456" y="133.0" class="addr" text-anchor="end">0x20000C60</text>
<text x="560.0" y="137.0" text-anchor="middle" class="region-name" fill="#FFFFFF">LED frame buf</text>
<rect x="460" y="146.0" width="200" height="24.6" fill="#4682B4" class="region"/>
<text x="456" y="157.0" class="addr" text-anchor="end">0x20001410</text>
<text x="560.0" y="161.3" text-anchor="middle" class="region-name" fill="#FFFFFF">Per-key + WS2812</text>
<rect x="460" y="170.6" width="200" height="112.8" fill="#4682B4" class="region"/>
<text x="456" y="181.6" class="addr" text-anchor="end">0x20002410</text>
<text x="560.0" y="230.0" text-anchor="middle" class="region-name" fill="#FFFFFF">Mag engine</text>
<text x="560.0" y="237.0" text-anchor="middle" class="region-size" fill="#FFFFFF">18760 B</text>
<rect x="460" y="283.4" width="200" height="33.1" fill="#4682B4" class="region"/>
<text x="456" y="294.4" class="addr" text-anchor="end">0x20006D58</text>
<text x="560.0" y="303.0" text-anchor="middle" class="region-name" fill="#FFFFFF">USB + RF + config</text>
<text x="560.0" y="310.0" text-anchor="middle" class="region-size" fill="#FFFFFF">5508 B</text>
<rect x="460" y="316.5" width="200" height="24.0" fill="#4682B4" class="region"/>
<text x="456" y="327.5" class="addr" text-anchor="end">0x200082DC</text>
<text x="560.0" y="331.5" text-anchor="middle" class="region-name" fill="#FFFFFF">Vendor cmd buf</text>
<rect x="460" y="340.5" width="200" height="29.0" fill="#4682B4" class="region"/>
<text x="456" y="351.5" class="addr" text-anchor="end">0x20008528</text>
<text x="560.0" y="358.0" text-anchor="middle" class="region-name" fill="#FFFFFF">LED anim state</text>
<rect x="460" y="369.5" width="200" height="24.0" fill="#E8820C" class="region"/>
<text x="456" y="380.5" class="addr" text-anchor="end">0x20009800</text>
<text x="560.0" y="384.5" text-anchor="middle" class="region-name" fill="#FFFFFF">Patch (used)</text>
<rect x="460" y="393.5" width="200" height="24.0" fill="url(#hatch-orange)" class="region"/>
<text x="456" y="404.5" class="addr" text-anchor="end">0x20009B06</text>
<text x="560.0" y="408.5" text-anchor="middle" class="region-name" fill="#886620">Patch (free)</text>
<rect x="460" y="417.5" width="200" height="332.5" fill="url(#hatch)" class="region"/>
<text x="456" y="428.5" class="addr" text-anchor="end">0x2000A800</text>
<text x="560.0" y="586.8" text-anchor="middle" class="region-name" fill="#888888">(unused)</text>
<text x="560.0" y="593.8" text-anchor="middle" class="region-size" fill="#888888">54 KB</text>
<text x="456" y="761.0" class="addr" text-anchor="end">0x20018000</text>
<rect x="20" y="770.0" width="14" height="14" fill="#4682B4" stroke="#999" stroke-width="0.5"/>
<text x="40" y="780.0" class="legend-text">Firmware / globals</text>
<rect x="186" y="770.0" width="14" height="14" fill="#4CAF50" stroke="#999" stroke-width="0.5"/>
<text x="206" y="780.0" class="legend-text">Config / keymaps</text>
<rect x="338" y="770.0" width="14" height="14" fill="#E8820C" stroke="#999" stroke-width="0.5"/>
<text x="358" y="780.0" class="legend-text">Patch (used)</text>
<rect x="462" y="770.0" width="14" height="14" fill="url(#hatch-orange)" stroke="#999" stroke-width="0.5"/>
<text x="482" y="780.0" class="legend-text">Patch (free)</text>
<rect x="586" y="770.0" width="14" height="14" fill="#B39DDB" stroke="#999" stroke-width="0.5"/>
<text x="606" y="780.0" class="legend-text">Stack</text>
<rect x="661" y="770.0" width="14" height="14" fill="url(#hatch)" stroke="#999" stroke-width="0.5"/>
<text x="681" y="780.0" class="legend-text">Unused</text>
</svg>